<?xml version="1.0" encoding="UTF-8" standalone="no"?>
<svg
   xmlns:dc="http://purl.org/dc/elements/1.1/"
   xmlns:cc="http://creativecommons.org/ns#"
   xmlns:rdf="http://www.w3.org/1999/02/22-rdf-syntax-ns#"
   xmlns:svg="http://www.w3.org/2000/svg"
   xmlns="http://www.w3.org/2000/svg"
   xmlns:sodipodi="http://sodipodi.sourceforge.net/DTD/sodipodi-0.dtd"
   xmlns:inkscape="http://www.inkscape.org/namespaces/inkscape"
   version="1.1"
   id="svg2"
   width="1500"
   height="400"
   viewBox="0 0 1500.0001 400.00001"
   sodipodi:docname="leccion-4-background.svg"
   inkscape:version="1.0.2 (e86c870879, 2021-01-15)"
   inkscape:export-filename="/home/aosorio/Documentos/CENDITEL/2024/Equipos/Cursos en Línea/Aprendizaje en Robótica/repo/robotica/static/img/Leccion-4/leccion-4-background.png"
   inkscape:export-xdpi="260"
   inkscape:export-ydpi="260">
  <metadata
     id="metadata8">
    <rdf:RDF>
      <cc:Work
         rdf:about="">
        <dc:format>image/svg+xml</dc:format>
        <dc:type
           rdf:resource="http://purl.org/dc/dcmitype/StillImage" />
        <dc:title />
      </cc:Work>
    </rdf:RDF>
  </metadata>
  <defs
     id="defs6">
    <clipPath
       clipPathUnits="userSpaceOnUse"
       id="clipPath3832">
      <rect
         style="opacity:1;fill:#ffffff;fill-opacity:1;stroke:none;stroke-width:1;stroke-linecap:square;stroke-linejoin:round"
         id="rect3834"
         width="158.75"
         height="185.20833"
         x="227.86723"
         y="116.99844"
         d="m 227.86723,116.99844 h 158.75 v 185.20833 h -158.75 z" />
    </clipPath>
    <inkscape:path-effect
       effect="spiro"
       id="path-effect3812"
       is_visible="true"
       lpeversion="1" />
    <clipPath
       clipPathUnits="userSpaceOnUse"
       id="clipPath3832-3">
      <rect
         style="opacity:1;fill:#ffffff;fill-opacity:1;stroke:none;stroke-width:1;stroke-linecap:square;stroke-linejoin:round"
         id="rect3834-6"
         width="158.75"
         height="185.20833"
         x="227.86723"
         y="116.99844" />
    </clipPath>
    <inkscape:path-effect
       effect="spiro"
       id="path-effect3698"
       is_visible="true"
       lpeversion="1" />
  </defs>
  <sodipodi:namedview
     pagecolor="#ffffff"
     bordercolor="#666666"
     borderopacity="1"
     objecttolerance="10"
     gridtolerance="10"
     guidetolerance="10"
     inkscape:pageopacity="0"
     inkscape:pageshadow="2"
     inkscape:window-width="1920"
     inkscape:window-height="977"
     id="namedview4"
     showgrid="false"
     showguides="true"
     inkscape:guide-bbox="true"
     inkscape:zoom="0.65788269"
     inkscape:cx="613.56617"
     inkscape:cy="217.73739"
     inkscape:window-x="0"
     inkscape:window-y="28"
     inkscape:window-maximized="1"
     inkscape:current-layer="g10"
     inkscape:document-rotation="0">
    <sodipodi:guide
       position="0,400.00002"
       orientation="0,-1"
       id="guide14" />
    <sodipodi:guide
       position="0,0"
       orientation="1,0"
       id="guide16" />
    <sodipodi:guide
       position="1500.0001,0"
       orientation="1,0"
       id="guide101" />
    <sodipodi:guide
       position="0,0"
       orientation="0,-1"
       id="guide12" />
  </sodipodi:namedview>
  <g
     inkscape:groupmode="layer"
     inkscape:label="Image"
     id="g10">
    <rect
       style="fill:#00ff00;stroke-width:1.00632"
       id="rect99"
       width="1500"
       height="400"
       x="0"
       y="-448.75766" />
    <path
       style="fill:#fbbf00;fill-opacity:1;stroke:none;stroke-width:0.264583px;stroke-linecap:butt;stroke-linejoin:miter;stroke-opacity:1"
       d="m 388.09545,264.19701 c 0.71551,3.08917 -0.18705,6.5069 -2.33447,8.84003 -2.14742,2.33313 -5.47875,3.51541 -8.61653,3.058 -1.53839,-0.22426 -3.00658,-0.81189 -4.54609,-1.02831 -2.537,-0.35664 -5.13644,0.32398 -7.41693,1.49143 -1.88266,0.96379 -3.5791,2.24701 -5.32064,3.44714 -1.74155,1.20013 -3.56464,2.33533 -5.5887,2.9489 -1.49579,0.45343 -3.11575,0.60783 -4.6231,0.19443 -1.528,-0.41906 -2.85606,-1.39785 -3.92702,-2.56551 -1.07096,-1.16767 -1.91008,-2.5252 -2.73312,-3.87908 -0.82304,-1.35388 -1.64249,-2.7211 -2.68138,-3.91738 -1.0389,-1.19629 -2.32118,-2.22516 -3.82421,-2.72646 -1.34624,-0.449 -2.82166,-0.45337 -4.1998,-0.11474 -1.37815,0.33862 -2.66184,1.01033 -3.79459,1.86522 -2.2655,1.70978 -3.90407,4.10164 -5.47148,6.46787 -1.33476,2.01502 -2.65622,4.05425 -4.28757,5.83767 -1.63135,1.78342 -3.6062,3.31657 -5.90023,4.07771 -1.86194,0.61778 -3.87471,0.70503 -5.81731,0.43157 -1.94259,-0.27345 -3.82191,-0.8983 -5.62395,-1.67361 -3.60409,-1.55062 -6.93523,-3.70764 -10.61011,-5.08208 -6.06819,-2.26955 -12.72775,-2.2851 -19.19667,-1.92894 -3.05766,0.16835 -6.11833,0.41339 -9.17826,0.29323 -3.05993,-0.12015 -6.14274,-0.61812 -8.93617,-1.87286 -4.00906,-1.80078 -7.16628,-5.02365 -10.61176,-7.75203 -1.72273,-1.36419 -3.54893,-2.62356 -5.56275,-3.50297 -2.01382,-0.87942 -4.2323,-1.36766 -6.41859,-1.14639 -2.99114,0.30272 -5.74717,1.9277 -7.81351,4.11146 -2.06633,2.18375 -3.4971,4.89749 -4.59032,7.6981 -2.18644,5.60121 -3.16225,11.75655 -6.46021,16.78423 -2.09931,3.20036 -5.14953,5.83738 -8.76208,7.10183 -0.74106,0.25938 -1.52098,0.47061 -2.14272,0.95007 -0.31087,0.23973 -0.57629,0.54693 -0.72803,0.90898 -0.15175,0.36206 -0.18292,0.78133 -0.0454,1.14901 0.13337,0.35645 0.41832,0.64597 0.75639,0.82074 0.33808,0.17477 0.72591,0.24023 1.10625,0.22677 0.76068,-0.0269 1.47316,-0.35418 2.17686,-0.6443 6.45221,-2.66015 13.73938,-2.52985 20.61372,-1.32529 6.87434,1.20455 13.53003,3.42693 20.3619,4.85278 19.06954,3.97993 38.84674,1.64884 58.09925,-1.3224 16.56382,-2.5563 33.64821,-5.55887 49.89269,-1.43435 5.8448,1.48401 11.49825,3.87869 17.49776,4.48689 2.99976,0.30411 6.07864,0.14519 8.945,-0.79021 2.86636,-0.9354 5.51288,-2.6851 7.24125,-5.15567 2.0875,-2.98392 2.70159,-6.78205 2.56894,-10.42126 -0.13264,-3.6392 -0.94802,-7.214 -1.46821,-10.81827 -0.90497,-6.27025 -0.91446,-12.66905 -0.0281,-18.94195 z"
       id="path3810"
       inkscape:path-effect="#path-effect3812"
       inkscape:original-d="m 388.09545,264.19701 c -1.87968,-3.05155 30.90669,-22.56421 -10.951,11.89803 -2.61134,2.14997 -2.72809,1.26037 -4.54609,-1.02831 -1.81798,-2.28867 -4.20372,1.68634 -7.41693,1.49143 -3.21321,-0.19491 -7.6729,4.01891 -10.90934,6.39604 -3.23646,2.37714 -2.89468,-2.54588 -4.6231,0.19443 -1.72844,2.74031 -11.06672,-16.55253 -13.16573,-13.08843 -2.099,3.4641 -10.30429,6.04876 -13.46587,8.21835 -3.16156,2.16958 -4.02968,9.07576 -10.1878,9.91538 -6.15813,0.83963 -15.33762,-5.30238 -22.05137,-6.32412 -6.71375,-1.02174 -12.16053,-0.19913 -19.19667,-1.92894 -7.03612,-1.7298 -12.07601,-1.05283 -18.11443,-1.57963 -6.0384,-0.52682 -15.84917,-13.9749 -22.5931,-12.40139 -6.74394,1.5735 -11.78842,24.77036 -18.86404,28.59379 -7.07565,3.82343 -5.84113,4.73482 -8.76208,7.10183 -2.92094,2.36701 -1.94378,2.00564 -2.9161,3.00806 -0.97229,1.00243 2.69327,0.26907 4.0395,0.40321 1.34622,0.13413 27.31733,2.35192 40.97562,3.52749 13.65827,1.17557 38.7331,-0.88133 58.09925,-1.3224 19.36615,-0.44106 33.26206,-0.95597 49.89269,-1.43435 16.63062,-0.47839 23.75383,-1.02622 33.68401,-1.45899 9.93018,-0.43277 -0.32704,-16.0979 1.10073,-21.23953 1.42778,-5.14164 1.54081,-12.57718 -0.0281,-18.94195 z"
       clip-path="url(#clipPath3832)"
       sodipodi:nodetypes="cssssssssssssssssssssscc"
       transform="matrix(-9.4585724,0,0,7.9123916,3656.8471,-1991.1783)" />
  </g>
</svg>
