<?xml version="1.0" encoding="UTF-8" standalone="no"?>
<!-- Created with Inkscape (http://www.inkscape.org/) -->

<svg
   version="1.1"
   id="svg2359"
   width="512"
   height="512"
   viewBox="0 0 512 512"
   sodipodi:docname="flecha.svg"
   xml:space="preserve"
   inkscape:version="1.2.2 (b0a8486541, 2022-12-01)"
   xmlns:inkscape="http://www.inkscape.org/namespaces/inkscape"
   xmlns:sodipodi="http://sodipodi.sourceforge.net/DTD/sodipodi-0.dtd"
   xmlns="http://www.w3.org/2000/svg"
   xmlns:svg="http://www.w3.org/2000/svg"><defs
     id="defs2363" /><sodipodi:namedview
     id="namedview2361"
     pagecolor="#ffffff"
     bordercolor="#000000"
     borderopacity="0.25"
     inkscape:showpageshadow="2"
     inkscape:pageopacity="0.0"
     inkscape:pagecheckerboard="0"
     inkscape:deskcolor="#d1d1d1"
     showgrid="false"
     inkscape:zoom="0.80371094"
     inkscape:cx="-16.797084"
     inkscape:cy="199.07655"
     inkscape:window-width="1920"
     inkscape:window-height="995"
     inkscape:window-x="0"
     inkscape:window-y="24"
     inkscape:window-maximized="1"
     inkscape:current-layer="g2365" /><g
     inkscape:groupmode="layer"
     inkscape:label="Image"
     id="g2365"><g
       id="g4540"
       transform="matrix(-1,0,0,1,-31.15889,54.226142)"
       inkscape:export-filename="flechas/der-amarillo.png"
       inkscape:export-xdpi="45.046173"
       inkscape:export-ydpi="45.046173"
       style="fill:#fbbf00;fill-opacity:1"><path
         style="fill:#fbbf00;fill-opacity:1;stroke:#000000;stroke-width:10;stroke-dasharray:none"
         d="m -292.05175,409.10682 c -1.65246,-0.32191 -36.29622,-34.27918 -102.18896,-100.164 -88.77643,-88.76576 -99.76257,-100.08749 -100.3613,-103.42699 -1.71007,-9.53818 -8.0703,-2.50821 100.3613,-110.929436 98.81377,-98.8043216 99.73,-99.6853366 104.36398,-100.3522936 8.02151,-1.154517 15.08414,2.760981 17.76136,9.846834 0.68902,1.82363 1.06362,17.3921706 1.06362,44.2040896 v 41.38899 l 26.83005,0.29591 26.83005,0.29591 3.52922,2.69355 c 7.25749,5.53903 6.81067,-1.59923 6.81067,108.806446 0,110.40568 0.44682,103.26742 -6.81067,108.80645 l -3.52922,2.69355 -26.79929,0.29575 -26.79929,0.29575 -0.28076,42.88207 c -0.27186,41.52322 -0.34609,42.96953 -2.34255,45.64246 -4.40949,5.90358 -10.76164,8.2204 -18.43821,6.72496 z m 126.17962,-96.96608 c -1.82621,-0.93108 -4.52621,-3.27369 -6,-5.2058 l -2.67963,-3.51291 -0.26417,-100.3971 c -0.2944,-111.881426 -0.73623,-104.487426 6.57705,-110.065546 5.04391,-3.84717 13.33033,-3.84717 18.37424,0 7.25995,5.53744 6.81288,-1.60259 6.81288,108.806446 0,110.21959 0.42632,103.28484 -6.68288,108.70729 -4.35407,3.32101 -11.45529,4.05484 -16.13749,1.66762 z m 64,0 c -1.82621,-0.93108 -4.52621,-3.27369 -6,-5.2058 l -2.67963,-3.51291 -0.26417,-100.3971 c -0.2944,-111.881426 -0.73623,-104.487426 6.57705,-110.065546 5.043908,-3.84717 13.330328,-3.84717 18.374238,0 7.25995,5.53744 6.81288,-1.60259 6.81288,108.806446 0,110.21959 0.42632,103.28484 -6.68288,108.70729 -4.35407,3.32101 -11.45529,4.05484 -16.137488,1.66762 z"
         id="path3084" /><path
         style="fill:#fbbf00;fill-opacity:1"
         d="m -292.05175,409.10682 c -1.65246,-0.32191 -36.29622,-34.27918 -102.18896,-100.164 -88.77643,-88.76576 -99.76257,-100.08749 -100.3613,-103.42699 -1.71007,-9.53818 -8.0703,-2.50821 100.3613,-110.929436 98.81377,-98.8043216 99.73,-99.6853366 104.36398,-100.3522936 8.02151,-1.154517 15.08414,2.760981 17.76136,9.846834 0.68902,1.82363 1.06362,17.3921706 1.06362,44.2040896 v 41.38899 l 26.83005,0.29591 26.83005,0.29591 3.52922,2.69355 c 7.25749,5.53903 6.81067,-1.59923 6.81067,108.806446 0,110.40568 0.44682,103.26742 -6.81067,108.80645 l -3.52922,2.69355 -26.79929,0.29575 -26.79929,0.29575 -0.28076,42.88207 c -0.27186,41.52322 -0.34609,42.96953 -2.34255,45.64246 -4.40949,5.90358 -10.76164,8.2204 -18.43821,6.72496 z m 126.17962,-96.96608 c -1.82621,-0.93108 -4.52621,-3.27369 -6,-5.2058 l -2.67963,-3.51291 -0.26417,-100.3971 c -0.2944,-111.881426 -0.73623,-104.487426 6.57705,-110.065546 5.04391,-3.84717 13.33033,-3.84717 18.37424,0 7.25995,5.53744 6.81288,-1.60259 6.81288,108.806446 0,110.21959 0.42632,103.28484 -6.68288,108.70729 -4.35407,3.32101 -11.45529,4.05484 -16.13749,1.66762 z m 64,0 c -1.82621,-0.93108 -4.52621,-3.27369 -6,-5.2058 l -2.67963,-3.51291 -0.26417,-100.3971 c -0.2944,-111.881426 -0.73623,-104.487426 6.57705,-110.065546 5.043908,-3.84717 13.330328,-3.84717 18.374238,0 7.25995,5.53744 6.81288,-1.60259 6.81288,108.806446 0,110.21959 0.42632,103.28484 -6.68288,108.70729 -4.35407,3.32101 -11.45529,4.05484 -16.137488,1.66762 z"
         id="path2849" /></g></g></svg>
